<svg xmlns="http://www.w3.org/2000/svg" width="34.134" height="33.528" viewBox="0 0 34.134 33.528">
  <g id="Grupo_247" data-name="Grupo 247" transform="translate(-628.271 -46.754)">
    <path id="Trazado_365" data-name="Trazado 365" d="M652.869,240.835c0-1.455,0-2.909,0-4.364,0-.265,0-.4.312-.2a18.691,18.691,0,0,0,3.291,1.815,16.6,16.6,0,0,0,5.182,1.155,17.875,17.875,0,0,0,9.539-2.121,17.229,17.229,0,0,0,5.088-4.018c.3-.347.58-.709.87-1.063.06-.073.117-.188.215-.164.134.033.1.175.1.279.008.8.02,1.6.012,2.406,0,.262.082.331.346.354a7.862,7.862,0,0,1,2.548.62,7.706,7.706,0,0,1,4.2,4.508,7.9,7.9,0,0,1,.315,3.9,6.984,6.984,0,0,1-.663,2.091,8.106,8.106,0,0,1-1.274,1.813,7.391,7.391,0,0,1-6.545,2.389,6.37,6.37,0,0,1-3.331-1.176,7.435,7.435,0,0,1-1.789-1.688.583.583,0,0,0-.543-.276q-6.83.037-13.66.064c-.734,0-1.468-.007-2.2.006a1.919,1.919,0,0,1-2.005-2.011c.027-1.441.006-2.882.006-4.323Zm30.946,1.743a6.507,6.507,0,1,0-6.312,6.534A6.493,6.493,0,0,0,683.815,242.578Z" transform="translate(-22.588 -170.015)" fill="#4EC1FC"/>
    <path id="Trazado_366" data-name="Trazado 366" d="M656.606,50.73c.113.047.092.155.106.244a12.92,12.92,0,0,1-.161,4.311,14,14,0,0,1-1.111,3.288,14.206,14.206,0,0,1-2.207,3.453,17.331,17.331,0,0,1-10.74,5.958A15.619,15.619,0,0,1,631.068,65.5a13.448,13.448,0,0,1-2.675-2.483c-.065-.076-.17-.146-.1-.324a10.468,10.468,0,0,0,1.924,1.411c.118-.138.062-.293.062-.431,0-4.935.024-9.87-.009-14.8a1.951,1.951,0,0,1,2.1-2.108q7.688.026,15.376-.007a1.579,1.579,0,0,1,1.247.722c.825.986,1.737,1.891,2.585,2.854.65.738,1.33,1.449,2,2.172q.527.571,1.056,1.141a1.081,1.081,0,0,1,.286.781c0,.462,0,.924,0,1.387,0,.12-.03.289.113.313s.171-.157.215-.26a14.607,14.607,0,0,0,1.285-4.919C656.541,50.87,656.516,50.78,656.606,50.73ZM645.9,64.643H636.21c-.122,0-.245.006-.367,0a.783.783,0,0,1-.728-.743c-.043-.592.315-.918,1.017-.918h12.56a1.072,1.072,0,0,0,.666-.133,18.091,18.091,0,0,0,3.706-3.41.767.767,0,0,0,.158-.526c0-1.25-.015-2.5.007-3.751.007-.392-.144-.484-.5-.48-1.237.016-2.474.005-3.711.006-.99,0-1.414-.419-1.415-1.413,0-1.441-.011-2.882.008-4.322,0-.37-.1-.489-.478-.488q-7.279.018-14.558.009c-.581,0-.583,0-.583.6,0,5.124.007,10.249-.015,15.373,0,.5.139.765.612.866a1.5,1.5,0,0,1,.192.068,16.98,16.98,0,0,0,9.472.551A13.619,13.619,0,0,0,645.9,64.643Z" fill="#4EC1FC"/>
    <path id="Trazado_367" data-name="Trazado 367" d="M914.273,316.473c-.992,0-1.985-.01-2.977.007-.294.005-.406-.061-.4-.379.016-1.277.01-2.555,0-3.833a.763.763,0,0,1,.356-.73.481.481,0,0,0,.253-.5,9.124,9.124,0,0,1,.041-1.22,2.762,2.762,0,0,1,2.786-2.454,2.73,2.73,0,0,1,2.7,2.58,7.245,7.245,0,0,1,.041.772c-.015.376,0,.712.382.936a.622.622,0,0,1,.23.582c0,1.3-.007,2.61.006,3.914,0,.287-.118.332-.364.329C916.312,316.467,915.292,316.473,914.273,316.473Zm.011-5.117c.19,0,.38.011.569,0,.413-.028.963.189,1.2-.1s.076-.832.068-1.262a1.839,1.839,0,0,0-1.247-1.6,1.9,1.9,0,0,0-1.964.526,2.94,2.94,0,0,0-.467,2.122c-.007.254.092.328.333.322C913.281,311.348,913.782,311.357,914.284,311.356Zm.009,4.275c.926,0,.926,0,.688-.884,0-.013-.005-.027-.01-.039a.918.918,0,0,1,.1-1.038.8.8,0,0,0-.146-1.1.9.9,0,0,0-1.221-.037.83.83,0,0,0-.214,1.091,1.017,1.017,0,0,1,.126,1.112C913.365,315.629,913.374,315.632,914.292,315.632Z" transform="translate(-259.565 -239.347)" fill="#4EC1FC"/>
    <path id="Trazado_368" data-name="Trazado 368" d="M719.5,189.066q-3.259,0-6.518,0a.846.846,0,0,1-.891-.569.793.793,0,0,1,.293-.941.931.931,0,0,1,.617-.165q6.539,0,13.078,0a.842.842,0,0,1,.944.845.859.859,0,0,1-.963.825q-3.28,0-6.559,0Z" transform="translate(-76.933 -129.162)" fill="#4EC1FC"/>
    <path id="Trazado_369" data-name="Trazado 369" d="M717.618,130.839c-1.535,0-3.07.006-4.6,0a.837.837,0,0,1-.838-1.231.793.793,0,0,1,.766-.444q4.706-.006,9.412,0a.842.842,0,0,1,.869.843.853.853,0,0,1-.919.833C720.742,130.845,719.18,130.84,717.618,130.839Z" transform="translate(-76.964 -75.68)" fill="#4EC1FC"/>
  </g>
</svg>
